<?xml version="1.0" encoding="UTF-8"?>
<svg version="1.1" xmlns="http://www.w3.org/2000/svg" width="936" height="366">
<path d="M0 0 C308.88 0 617.76 0 936 0 C936 120.78 936 241.56 936 366 C627.12 366 318.24 366 0 366 C0 245.22 0 124.44 0 0 Z " fill="#FEFEFE" transform="translate(0,0)"/>
<path d="M0 0 C0.70511719 0.60328125 1.41023437 1.2065625 2.13671875 1.828125 C2.93464844 2.49328125 3.73257813 3.1584375 4.5546875 3.84375 C25.09943339 21.55363948 38.10997756 46.82852216 41.13671875 73.828125 C42.6486277 106.60174899 35.75465121 135.10627757 13.57421875 160.078125 C12.10060646 161.6666291 10.62191393 163.25044514 9.13671875 164.828125 C8.59789062 165.43140625 8.0590625 166.0346875 7.50390625 166.65625 C-10.10609038 185.59363331 -37.69940488 195.72549107 -63.08203125 197.08203125 C-80.17622101 197.68054686 -98.36242995 195.30853582 -113.86328125 187.828125 C-114.4444873 187.55516602 -115.02569336 187.28220703 -115.62451172 187.00097656 C-142.08973209 174.42495953 -162.32544531 152.28837484 -172.3984375 124.76171875 C-173.65852051 121.14791252 -174.78404721 117.50015303 -175.86328125 113.828125 C-176.21519531 112.65830078 -176.21519531 112.65830078 -176.57421875 111.46484375 C-184.14108046 84.10351047 -177.35540372 54.19505947 -163.828125 30.01171875 C-146.84802743 2.49923462 -121.06097237 -14.67632583 -89.86328125 -22.171875 C-58.72668601 -28.28732604 -24.53236713 -20.13377266 0 0 Z " fill="#F0DD7B" transform="translate(241.86328125,87.171875)"/>
<path d="M0 0 C2.14905987 3.22358981 2.71504504 5.4482986 3.56420898 9.20825195 C3.8783201 10.57303701 4.19254123 11.93779674 4.5068512 13.30253601 C4.676001 14.04720312 4.84515079 14.79187023 5.01942635 15.55910301 C9.26714304 34.20447841 13.89379454 52.75597512 18.55079317 71.30222845 C19.09806776 73.48210786 19.64488191 75.66210224 20.19153976 77.84213638 C23.1990063 89.83545134 26.21166739 101.82745982 29.22705078 113.81878662 C31.3166796 122.12881018 33.40477525 130.43921187 35.4879455 138.75085717 C36.55121448 142.99246452 37.61772973 147.23323768 38.68676674 151.47339475 C39.49848486 154.69665041 40.30564747 157.92104342 41.11352539 161.14526367 C41.55517784 162.8909816 41.55517784 162.8909816 42.00575256 164.67196655 C42.27041321 165.7318428 42.53507385 166.79171906 42.80775452 167.88371277 C43.0394185 168.80500567 43.27108248 169.72629858 43.50976658 170.67550945 C44 173 44 173 44 176 C15.29 176 -13.42 176 -43 176 C-42.38286169 171.06289349 -41.8186511 166.77615974 -40.62934875 162.04983521 C-40.35056381 160.9320871 -40.07177887 159.81433899 -39.7845459 158.66271973 C-39.47964233 157.46062866 -39.17473877 156.2585376 -38.8605957 155.02001953 C-38.53479926 153.72124406 -38.20942755 152.42236198 -37.88444519 151.12338257 C-37.186045 148.33562628 -36.48469176 145.54863612 -35.78100014 142.76221085 C-34.66126616 138.32818906 -33.5483692 133.89246807 -32.43632507 129.45651245 C-30.66919749 122.41074164 -28.89768467 115.36608222 -27.12422389 108.32190311 C-23.96808541 95.78567907 -20.81687537 83.24821878 -17.67098111 70.70942008 C-16.57189605 66.32958112 -15.47011351 61.95043287 -14.36614841 57.57182157 C-13.50420686 54.15141424 -12.64457205 50.73043117 -11.78637695 47.30908203 C-11.62264827 46.65646401 -11.45891959 46.00384598 -11.29022944 45.33145165 C-8.69424595 34.96465627 -6.23623869 24.57030607 -3.90212727 14.14142036 C-2.81716342 9.3312851 -1.69495731 4.64164775 0 0 Z " fill="#495E57" transform="translate(173,86)"/>
<path d="M0 0 C3.04018402 1.63702217 5.01065975 3.15236531 7.25 5.75 C9.79171204 4.57690214 11.97883744 3.2591503 14.3125 1.6875 C19.48059244 -1.72124182 24.22103621 -1.88415767 30.25 -1.25 C34.84692451 0.12046301 37.62182736 1.99297143 40.6875 5.6875 C43.60785663 11.41139899 43.38491211 16.91973178 43.34765625 23.20703125 C43.3462413 24.10999435 43.34482635 25.01295746 43.34336853 25.94328308 C43.33778823 28.81638963 43.32523934 31.68941716 43.3125 34.5625 C43.30748245 36.51497283 43.30291999 38.46744689 43.29882812 40.41992188 C43.28782525 45.19664485 43.27057418 49.97330904 43.25 54.75 C38.3 54.75 33.35 54.75 28.25 54.75 C28.2406543 53.55922852 28.23130859 52.36845703 28.22167969 51.14160156 C28.18178613 46.72064908 28.11602927 42.30039297 28.04248047 37.87988281 C28.01426714 35.96721344 27.99305439 34.0544274 27.97900391 32.14160156 C27.95757919 29.39066827 27.9109326 26.64113825 27.859375 23.890625 C27.85814636 23.03631897 27.85691772 22.18201294 27.85565186 21.30181885 C27.7608693 17.45387946 27.69678591 15.38144783 25.43066406 12.17871094 C23.19656631 10.43031802 23.19656631 10.43031802 19.75 10.75 C16.02060252 11.81554214 14.61649534 12.7463713 12.25 15.75 C10.64048457 18.96903085 11.00765252 22.49838832 10.93359375 26.0390625 C10.91281265 26.85748627 10.89203156 27.67591003 10.87062073 28.51913452 C10.80515188 31.13766966 10.74625274 33.75630639 10.6875 36.375 C10.64431224 38.14844807 10.60069786 39.92188581 10.55664062 41.6953125 C10.44947324 46.04677046 10.34819831 50.39833077 10.25 54.75 C5.3 54.75 0.35 54.75 -4.75 54.75 C-4.7593457 53.55922852 -4.76869141 52.36845703 -4.77832031 51.14160156 C-4.81821387 46.72064908 -4.88397073 42.30039297 -4.95751953 37.87988281 C-4.98573286 35.96721344 -5.00694561 34.0544274 -5.02099609 32.14160156 C-5.04242081 29.39066827 -5.0890674 26.64113825 -5.140625 23.890625 C-5.14185364 23.03631897 -5.14308228 22.18201294 -5.14434814 21.30181885 C-5.25363552 16.3948945 -5.25363552 16.3948945 -7.66308594 12.20043945 C-10.02393272 10.55961228 -10.93825965 10.28660733 -13.75 10.6875 C-14.41 10.75839844 -15.07 10.82929688 -15.75 10.90234375 C-18.8459617 12.21449939 -19.9439885 13.92067417 -21.75 16.75 C-22.34390761 19.68280367 -22.35482052 22.56522646 -22.359375 25.55078125 C-22.37591125 26.38715622 -22.39244751 27.22353119 -22.40948486 28.08525085 C-22.4578894 30.74440916 -22.47931844 33.40299592 -22.5 36.0625 C-22.52816609 37.87047135 -22.55809441 39.67841615 -22.58984375 41.48632812 C-22.66364605 45.90750501 -22.71326652 50.32836603 -22.75 54.75 C-27.7 54.75 -32.65 54.75 -37.75 54.75 C-37.75 36.6 -37.75 18.45 -37.75 -0.25 C-33.13 -0.25 -28.51 -0.25 -23.75 -0.25 C-23.75 1.73 -23.75 3.71 -23.75 5.75 C-23.13511719 5.32847656 -22.52023437 4.90695313 -21.88671875 4.47265625 C-21.07847656 3.92480469 -20.27023437 3.37695312 -19.4375 2.8125 C-18.63699219 2.26722656 -17.83648437 1.72195312 -17.01171875 1.16015625 C-11.49740328 -2.27795754 -5.94276828 -1.98092276 0 0 Z " fill="#4D625B" transform="translate(517.75,229.25)"/>
<path d="M0 0 C5.5738919 4.22846972 9.31641315 9.81583054 10.28662109 16.81884766 C10.9628244 24.71356384 11.37122823 33.09572589 6.69140625 39.85546875 C1.09760288 46.12104527 -4.03551355 51.3471913 -12.70703125 52.05078125 C-14.07538904 52.0701706 -15.44404931 52.07353202 -16.8125 52.0625 C-17.52591553 52.05758545 -18.23933105 52.0526709 -18.97436523 52.04760742 C-24.43322909 51.92588319 -28.19284168 51.28468348 -33 48.75 C-33.91652344 48.27433594 -33.91652344 48.27433594 -34.8515625 47.7890625 C-40.83332977 44.20000214 -43.53794435 38.34368453 -45.60546875 31.84765625 C-47.34467013 22.60061522 -46.48404506 14.51060526 -41.8359375 6.31640625 C-39.07815857 2.46138336 -36.15011171 -0.00136533 -32 -2.25 C-31.38382813 -2.58644531 -30.76765625 -2.92289063 -30.1328125 -3.26953125 C-20.042371 -7.85419243 -9.09105263 -5.68190789 0 0 Z " fill="#4C615A" transform="translate(618,233.25)"/>
<path d="M0 0 C6.02693246 3.12915689 10.85596853 7.64724937 13.13671875 14.109375 C14.672314 19.9974536 15.13671875 24.93702694 15.13671875 31.109375 C2.92671875 31.109375 -9.28328125 31.109375 -21.86328125 31.109375 C-19.13367922 40.67160273 -19.13367922 40.67160273 -14.86328125 43.109375 C-11.81874634 43.59156653 -8.91037038 43.57222398 -5.86328125 43.109375 C-3.36167307 41.23316887 -2.24382473 39.87046197 -0.86328125 37.109375 C9.69480531 38.07292853 9.69480531 38.07292853 14.13671875 39.109375 C11.14264732 46.05562072 7.73895476 50.80034937 0.86328125 54.25 C-7.16730994 56.78113189 -17.20310609 56.01940394 -24.77734375 52.43359375 C-31.86529837 47.93393717 -34.36324255 41.42769403 -36.55078125 33.671875 C-37.61426765 24.95128651 -37.37272369 16.1978117 -32.11328125 8.859375 C-23.56969405 -1.57585803 -12.89553648 -4.90817547 0 0 Z " fill="#373737" transform="translate(583.86328125,141.890625)"/>
<path d="M0 0 C7.76508709 -0.38228121 12.96805039 1.92962921 19.5390625 5.8125 C27.05730439 13.748422 27.7890625 22.67058653 27.7890625 33.1875 C15.9090625 33.1875 4.0290625 33.1875 -8.2109375 33.1875 C-6.00684882 41.67894702 -6.00684882 41.67894702 -0.2109375 46.1875 C3.63809323 46.65880989 6.63298736 46.55455636 9.7890625 44.1875 C10.49767466 42.53823015 11.1686285 40.8719239 11.7890625 39.1875 C13.53939094 39.32933696 15.28931784 39.47613429 17.0390625 39.625 C18.01359375 39.70621094 18.988125 39.78742188 19.9921875 39.87109375 C22.35368003 40.13824584 24.50807315 40.54121968 26.7890625 41.1875 C25.28194373 46.94195347 22.82823712 50.96471766 18.05859375 54.453125 C10.83319185 58.42220457 1.78463888 58.45651361 -6.2109375 57.1875 C-12.66551309 54.99053887 -16.88625186 51.27546668 -20.2734375 45.41015625 C-22.64905218 39.77796977 -23.60059721 34.39701056 -23.5859375 28.3125 C-23.58432617 27.61213623 -23.58271484 26.91177246 -23.58105469 26.19018555 C-23.44398669 20.38831221 -22.32837624 16.04767359 -19.2109375 11.1875 C-18.6334375 10.28 -18.0559375 9.3725 -17.4609375 8.4375 C-12.35219068 3.32875318 -7.15846031 0.60707791 0 0 Z " fill="#4C605A" transform="translate(441.2109375,227.8125)"/>
<path d="M0 0 C4.03182186 2.92083095 6.85184932 6.28630849 7.7578125 11.2734375 C7.84093415 12.70805326 7.87566625 14.14599255 7.87133789 15.58300781 C7.87126236 16.42357727 7.87118683 17.26414673 7.87110901 18.13018799 C7.86594772 19.02824158 7.86078644 19.92629517 7.85546875 20.8515625 C7.8540538 21.7781366 7.85263885 22.70471069 7.85118103 23.65936279 C7.84559074 26.61408742 7.83304 29.56873583 7.8203125 32.5234375 C7.81529625 34.52864474 7.81073356 36.53385317 7.80664062 38.5390625 C7.79562449 43.45055013 7.7783665 48.3619809 7.7578125 53.2734375 C2.8078125 53.2734375 -2.1421875 53.2734375 -7.2421875 53.2734375 C-7.24629639 52.1181958 -7.25040527 50.9629541 -7.25463867 49.77270508 C-7.27645074 45.47651881 -7.33076152 41.18124571 -7.39477539 36.88549805 C-7.41793738 35.02816537 -7.4323469 33.17070168 -7.43774414 31.31323242 C-7.44704712 28.6389825 -7.48806447 25.96678782 -7.53515625 23.29296875 C-7.5312236 22.46569778 -7.52729095 21.63842682 -7.52323914 20.78608704 C-7.63170359 16.47673131 -7.86595061 14.75613671 -10.6027832 11.24487305 C-13.10229195 9.07840098 -13.10229195 9.07840098 -16.1796875 8.7109375 C-20.07148841 9.42575807 -22.22032817 10.73232852 -25.2421875 13.2734375 C-27.51585529 17.51028714 -27.58280104 21.71406549 -27.65625 26.41796875 C-27.67561615 27.18775558 -27.6949823 27.95754242 -27.7149353 28.75065613 C-27.77444373 31.19563921 -27.82100045 33.64067012 -27.8671875 36.0859375 C-27.90539381 37.74936884 -27.94444707 39.41278097 -27.984375 41.07617188 C-28.08012133 45.14176991 -28.16425759 49.20746051 -28.2421875 53.2734375 C-32.8621875 53.2734375 -37.4821875 53.2734375 -42.2421875 53.2734375 C-42.2421875 35.4534375 -42.2421875 17.6334375 -42.2421875 -0.7265625 C-37.9521875 -0.7265625 -33.6621875 -0.7265625 -29.2421875 -0.7265625 C-28.9121875 1.2534375 -28.5821875 3.2334375 -28.2421875 5.2734375 C-27.79488281 4.86351562 -27.34757813 4.45359375 -26.88671875 4.03125 C-18.8506166 -3.1309903 -9.89056143 -5.646029 0 0 Z " fill="#4B6059" transform="translate(682.2421875,230.7265625)"/>
<path d="M0 0 C4.95 0 9.9 0 15 0 C15 20.46 15 40.92 15 62 C27.54 62 40.08 62 53 62 C53 66.29 53 70.58 53 75 C35.51 75 18.02 75 0 75 C0 50.25 0 25.5 0 0 Z " fill="#343434" transform="translate(358,121)"/>
<path d="M0 0 C4.95 0 9.9 0 15 0 C15 20.79 15 41.58 15 63 C27.54 63 40.08 63 53 63 C53 66.96 53 70.92 53 75 C35.51 75 18.02 75 0 75 C0 50.25 0 25.5 0 0 Z " fill="#495E57" transform="translate(358,209)"/>
<path d="M0 0 C0 6.27 0 12.54 0 19 C3.3 19 6.6 19 10 19 C10 22.96 10 26.92 10 31 C6.7 31 3.4 31 0 31 C0.495 46.345 0.495 46.345 1 62 C3.97 62 6.94 62 10 62 C10.33 65.63 10.66 69.26 11 73 C5.22295121 75.56757724 -0.79826104 75.82406668 -7 75 C-10.67673481 73.35885209 -12.56126218 71.03943344 -14.13623047 67.30810547 C-15.11886638 63.54475991 -15.25293045 60.05155565 -15.1953125 56.1953125 C-15.19106766 55.1093428 -15.19106766 55.1093428 -15.18673706 54.00143433 C-15.17562087 51.7091151 -15.15053312 49.41719937 -15.125 47.125 C-15.1149591 45.56250568 -15.10583519 44.00000518 -15.09765625 42.4375 C-15.07570973 38.62484662 -15.04124013 34.81249152 -15 31 C-16.98 31 -18.96 31 -21 31 C-21 27.04 -21 23.08 -21 19 C-19.02 19 -17.04 19 -15 19 C-15.15082031 18.29875 -15.30164063 17.5975 -15.45703125 16.875 C-15.87074287 13.5289368 -15.93549819 11.2592928 -15 8 C-11.18849665 4.61023976 -5.30099946 0 0 0 Z " fill="#383838" transform="translate(467,122)"/>
<path d="M0 0 C0 6.27 0 12.54 0 19 C3.3 19 6.6 19 10 19 C10 22.96 10 26.92 10 31 C6.7 31 3.4 31 0 31 C0.1179762 35.25435079 0.2422037 39.50845821 0.37231445 43.76245117 C0.4157163 45.2106424 0.45738744 46.65888654 0.49731445 48.10717773 C0.55489062 50.18489559 0.61862028 52.26234573 0.68359375 54.33984375 C0.72025146 55.59144287 0.75690918 56.84304199 0.79467773 58.13256836 C0.67803906 60.89630504 0.67803906 60.89630504 2 62 C4.67058851 62.14115161 7.32432238 62.04247107 10 62 C11.28317892 65.84953676 11.06643637 68.94738135 11 73 C5.80799182 76.16585865 -0.13361418 75.59756974 -6 75 C-9.19681412 73.85363782 -11.16636499 72.19563175 -13.13232422 69.37597656 C-14.41301968 65.86901871 -14.24488666 62.41698551 -14.1953125 58.734375 C-14.19106766 57.54427826 -14.19106766 57.54427826 -14.18673706 56.33013916 C-14.17556779 53.80327083 -14.15046944 51.27676068 -14.125 48.75 C-14.11496598 47.0338593 -14.10584087 45.31771302 -14.09765625 43.6015625 C-14.07563914 39.40090426 -14.04113187 35.2005128 -14 31 C-16.31 31 -18.62 31 -21 31 C-21 27.04 -21 23.08 -21 19 C-18.69 19 -16.38 19 -14 19 C-14.10441406 18.27554688 -14.20882813 17.55109375 -14.31640625 16.8046875 C-14.57990346 13.667816 -14.63346641 11.09080589 -14 8 C-11.38714091 5.20089938 -8.43386485 3.63165432 -5 2 C-3.89398438 1.42958984 -3.89398438 1.42958984 -2.765625 0.84765625 C-1 0 -1 0 0 0 Z " fill="#353535" transform="translate(502,122)"/>
<path d="M0 0 C4.95 0 9.9 0 15 0 C15 25.08 15 50.16 15 76 C10.05 76 5.1 76 0 76 C0 50.92 0 25.84 0 0 Z " fill="#333333" transform="translate(522,120)"/>
<path d="M0 0 C4.95 0 9.9 0 15 0 C15 18.15 15 36.3 15 55 C10.05 55 5.1 55 0 55 C0 36.85 0 18.7 0 0 Z " fill="#393939" transform="translate(422,141)"/>
<path d="M0 0 C4.47886016 2.28168348 6.82902218 4.50208332 9 9 C9.75612313 15.14435195 10.27843072 22.58891751 7.375 28.25 C3.9780457 32.1833155 1.12221584 33.69051019 -4 34.4375 C-8.70111423 33.75192084 -11.7140168 31.46336019 -14.8125 27.9375 C-18.11966652 22.54159673 -17.52904662 16.09873186 -17 10 C-15.79899177 6.14894099 -13.82029315 3.70636355 -10.75 1.0625 C-7.09609028 -0.34923785 -3.82830209 -0.67558272 0 0 Z " fill="#FBFCFC" transform="translate(604,240)"/>
<path d="M0 0 C3.4173873 2.12637432 5.71409142 4.14227427 7 8 C7 9.65 7 11.3 7 13 C0.07 13 -6.86 13 -14 13 C-14 6 -14 6 -11.625 3.125 C-7.56598286 -0.16087102 -5.24247372 -0.44427743 0 0 Z " fill="#F8F8F8" transform="translate(577,151)"/>
<path d="M0 0 C2.92937654 1.81310142 5.43647949 3.87295899 7 7 C7 8.98 7 10.96 7 13 C0.07 13 -6.86 13 -14 13 C-12.86166008 5.03162055 -12.86166008 5.03162055 -8 1 C-5.09704195 -0.45147903 -3.22738221 -0.37239025 0 0 Z " fill="#FAFAFA" transform="translate(447,239)"/>
<path d="M0 0 C4.95 0 9.9 0 15 0 C15 4.62 15 9.24 15 14 C10.05 14 5.1 14 0 14 C0 9.38 0 4.76 0 0 Z " fill="#404040" transform="translate(422,120)"/>
</svg>
